<svg width="12" height="12" viewBox="0 0 12 12" fill="none" xmlns="http://www.w3.org/2000/svg">
<g clip-path="url(#clip0_1809_3684)">
<path d="M6 0.283203C9.15733 0.283239 11.7176 2.8427 11.7178 6L11.71 6.29492C11.5566 9.31539 9.05858 11.7177 6 11.7178L5.70605 11.71C2.68536 11.5568 0.283238 9.05875 0.283203 6C0.283354 2.84277 2.84277 0.283354 6 0.283203ZM6 1.14062C3.31615 1.14078 1.14078 3.31615 1.14062 6C1.14066 8.68394 3.31608 10.8602 6 10.8604C8.68401 10.8603 10.8603 8.68401 10.8604 6C10.8602 3.31608 8.68394 1.14066 6 1.14062ZM7.60449 4.21777C7.75105 4.03212 8.02123 4.00004 8.20703 4.14648C8.39208 4.29299 8.42415 4.56242 8.27832 4.74805L5.88477 7.78418C5.8799 7.79035 5.87237 7.79499 5.86719 7.80078C5.86221 7.80642 5.8588 7.81386 5.85352 7.81934C5.84906 7.82387 5.84255 7.82681 5.83789 7.83105C5.82717 7.84104 5.81619 7.85066 5.80469 7.85938C5.79302 7.8682 5.78087 7.87632 5.76855 7.88379C5.75707 7.89073 5.74538 7.89753 5.7334 7.90332C5.72092 7.90934 5.7082 7.91517 5.69531 7.91992C5.68191 7.92483 5.66807 7.92907 5.6543 7.93262C5.6421 7.93574 5.62956 7.9384 5.61719 7.94043C5.60271 7.9428 5.58788 7.94443 5.57324 7.94531C5.56098 7.94604 5.54841 7.94661 5.53613 7.94629C5.51987 7.94585 5.50348 7.94371 5.4873 7.94141C5.47627 7.93983 5.46501 7.93798 5.4541 7.93555C5.44074 7.93254 5.42718 7.92911 5.41406 7.9248C5.3996 7.92004 5.38509 7.91454 5.37109 7.9082C5.35746 7.90199 5.34416 7.89447 5.33105 7.88672C5.32222 7.88149 5.31321 7.87603 5.30469 7.87012C5.29765 7.86522 5.28909 7.86177 5.28223 7.85645C5.27485 7.85063 5.26859 7.84313 5.26172 7.83691C5.25722 7.83286 5.25147 7.82945 5.24707 7.8252L3.75781 6.36035C3.58916 6.19442 3.58707 5.92364 3.75293 5.75488C3.91877 5.58641 4.18965 5.58348 4.3584 5.74902L5.50684 6.87793L7.60449 4.21777Z" fill="currentColor"/>
</g>
<defs>
<clipPath id="clip0_1809_3684">
<rect width="12" height="12" fill="white"/>
</clipPath>
</defs>
</svg>
