<svg width="16" height="16" viewBox="0 0 16 16" fill="none" xmlns="http://www.w3.org/2000/svg">
<path d="M3.00293 13.4023C2.63152 13.4023 2.31368 13.2702 2.04942 13.0059C1.78515 12.7417 1.65279 12.4236 1.65234 12.0518V3.94824C1.65234 3.57683 1.7847 3.25899 2.04942 2.99473C2.31413 2.73046 2.63197 2.59811 3.00293 2.59766H12.9973C13.3687 2.59766 13.6867 2.73001 13.9515 2.99473C14.2162 3.25944 14.3483 3.57728 14.3478 3.94824V12.0518C14.3478 12.4232 14.2157 12.7412 13.9515 13.0059C13.6872 13.2707 13.3691 13.4028 12.9973 13.4023H3.00293ZM2.61142 12.392L13.5321 12.392V5.29883L2.61142 5.29883V12.392ZM5.36645 11.3765L4.67772 10.7095L6.7274 8.67529L4.75006 6.63425L5.36645 5.97412L8.06763 8.67529L5.36645 11.3765ZM8.40527 11.3765V10.2131L10.4768 10.2393L11.6467 10.2393V11.3765H8.40527Z" fill="#666F8D"/>
</svg>
