<svg width="10" height="14" viewBox="0 0 10 14" fill="none" xmlns="http://www.w3.org/2000/svg">
  <path d="M5 0.885742C7.7614 0.885742 9.99994 3.12436 10 5.88574C10 7.88831 8.82242 9.61372 7.12402 10.4121L6.96387 12.3447C6.92788 12.7765 6.56686 13.1091 6.13379 13.1094H3.86719C3.43387 13.1094 3.07207 12.7768 3.03613 12.3447L2.875 10.4121C1.17709 9.61352 0 7.88794 0 5.88574C5.87541e-05 3.12439 2.23865 0.885801 5 0.885742ZM4.12207 11.998H5.87793L5.99512 10.5898H4.00488L4.12207 11.998ZM5 1.99707C2.8523 1.99713 1.11139 3.73804 1.11133 5.88574C1.11133 7.50621 2.10348 8.89435 3.51465 9.47852H6.48535C7.89662 8.8944 8.88867 7.50629 8.88867 5.88574C8.88861 3.73801 7.14775 1.99707 5 1.99707ZM6.66602 4.49902C6.97284 4.49902 7.22168 4.74786 7.22168 5.05469V6.72168C7.22157 6.9141 7.1217 7.09317 6.95801 7.19434C6.79434 7.29513 6.58993 7.30375 6.41797 7.21777L4.99902 6.50879L3.58105 7.21777C3.40901 7.30361 3.20463 7.29534 3.04102 7.19434C2.87748 7.09314 2.77746 6.91399 2.77734 6.72168V5.05469C2.77734 4.74798 3.02635 4.49922 3.33301 4.49902C3.63983 4.49902 3.88867 4.74786 3.88867 5.05469V5.82227L4.75098 5.3916L4.81152 5.36523C4.95345 5.31414 5.11141 5.32338 5.24805 5.3916L6.11035 5.3916L6.11035 5.82227V5.05469C6.11035 4.74809 6.35951 4.4994 6.66602 4.49902Z" fill="#666F8D"/>
</svg>
