<svg width="18" height="18" viewBox="0 0 18 18" fill="none" xmlns="http://www.w3.org/2000/svg">
<path d="M5.96506 7.58318C5.96506 7.15384 6.13561 6.74209 6.4392 6.4385C6.74279 6.13491 7.15455 5.96436 7.58389 5.96436H12.844C13.0566 5.96436 13.2671 6.00623 13.4635 6.08758C13.6599 6.16894 13.8384 6.28818 13.9887 6.4385C14.139 6.58882 14.2583 6.76728 14.3396 6.96368C14.421 7.16009 14.4628 7.3706 14.4628 7.58318V12.8433C14.4628 13.0559 14.421 13.2664 14.3396 13.4628C14.2583 13.6592 14.139 13.8377 13.9887 13.988C13.8384 14.1383 13.6599 14.2576 13.4635 14.3389C13.2671 14.4203 13.0566 14.4621 12.844 14.4621H7.58389C7.3713 14.4621 7.16079 14.4203 6.96439 14.3389C6.76798 14.2576 6.58952 14.1383 6.4392 13.988C6.28888 13.8377 6.16964 13.6592 6.08828 13.4628C6.00693 13.2664 5.96506 13.0559 5.96506 12.8433V7.58318Z" stroke="#666F8D" stroke-width="1.33333" stroke-linecap="round" stroke-linejoin="round"/>
<path d="M4.15141 11.8753C3.96506 11.7694 3.81007 11.6161 3.70218 11.4309C3.59429 11.2457 3.53735 11.0352 3.53714 10.8209V4.75108C3.53714 4.0834 4.08343 3.53711 4.75111 3.53711H10.821C11.2762 3.53711 11.5238 3.7708 11.7314 4.14409" stroke="#666F8D" stroke-width="1.33333" stroke-linecap="round" stroke-linejoin="round"/>
</svg>
