<svg width="8" height="7" viewBox="0 0 8 7" fill="none" xmlns="http://www.w3.org/2000/svg">
<path d="M0.388105 0.148729C0.189799 0.347035 0.189799 0.668551 0.388105 0.866856L2.90155 3.3803L0.148729 6.13312C-0.0495763 6.33143 -0.0495764 6.65294 0.148729 6.85125C0.347034 7.04955 0.668551 7.04955 0.866856 6.85125L3.61968 4.09843L6.3725 6.85125C6.5708 7.04955 6.89232 7.04955 7.09063 6.85125C7.28893 6.65294 7.28893 6.33143 7.09063 6.13312L4.3378 3.3803L6.85125 0.866856C7.04955 0.668551 7.04955 0.347035 6.85125 0.148729C6.65294 -0.0495763 6.33143 -0.0495765 6.13312 0.148729L3.61968 2.66217L1.10623 0.148729C0.907927 -0.0495762 0.58641 -0.0495763 0.388105 0.148729Z" fill="#898B8F"/>
</svg>
