<svg width="18" height="18" viewBox="0 0 18 18" fill="none" xmlns="http://www.w3.org/2000/svg">
<path d="M5.15476 3.44052L12.0952 3.44052L12.0952 11.6429L7.67857 16.0596L6.88988 15.2709C6.81627 15.1973 6.7557 15.0974 6.70817 14.9712C6.66064 14.845 6.63708 14.7241 6.6375 14.6084L6.6375 14.3875L7.33155 11.6429L3.26191 11.6429C2.9254 11.6429 2.63095 11.5167 2.37857 11.2643C2.12619 11.0119 2 10.7175 2 10.381L2 9.11909C2 9.04548 2.01052 8.96661 2.03155 8.88249C2.05258 8.79836 2.07361 8.71949 2.09464 8.64588L3.9875 4.19766C4.08214 3.98735 4.23988 3.80858 4.46072 3.66136C4.68155 3.51413 4.9129 3.44052 5.15476 3.44052ZM10.8333 4.70243L5.15476 4.70243L3.26191 9.11909L3.26191 10.381L8.94048 10.381L8.08869 13.8512L10.8333 11.1066L10.8333 4.70243ZM12.0952 11.6429L12.0952 10.381L13.9881 10.381L13.9881 4.70243L12.0952 4.70243L12.0952 3.44052L15.25 3.44052L15.25 11.6429L12.0952 11.6429Z" fill="#666F8D"/>
</svg>
