<svg width="16" height="16" viewBox="0 0 16 16" fill="none" xmlns="http://www.w3.org/2000/svg">
<path d="M6.56152 3.55664C6.62398 3.55669 6.68608 3.56937 6.74316 3.59473C6.80018 3.62008 6.85071 3.65783 6.89258 3.7041C6.9345 3.75045 6.9668 3.80489 6.98633 3.86426C7.00582 3.92358 7.01305 3.98669 7.00684 4.04883L6.75977 6.52148H8.7373L8.98926 4.00195C9.00151 3.88007 9.05861 3.76678 9.14941 3.68457C9.24032 3.60234 9.35887 3.55664 9.48145 3.55664H9.52832C9.59074 3.55671 9.65291 3.56938 9.70996 3.59473C9.76697 3.62009 9.81752 3.65783 9.85938 3.7041C9.9013 3.75045 9.93359 3.80489 9.95312 3.86426C9.97261 3.92357 9.97887 3.9867 9.97266 4.04883L9.72559 6.52148H11.5059C11.8355 6.52148 12 6.68599 12 7.01562C12 7.34522 11.8355 7.50977 11.5059 7.50977H9.62695L9.42871 9.49023H11.5059C11.8355 9.49023 12 9.65572 12 9.98535C11.9999 10.3147 11.8354 10.4795 11.5059 10.4795H9.33008L9.07812 13C9.06588 13.1219 9.00875 13.2352 8.91797 13.3174C8.82706 13.3996 8.70851 13.4453 8.58594 13.4453H8.53906C8.47662 13.4453 8.41449 13.4326 8.35742 13.4072C8.30041 13.3819 8.24987 13.3441 8.20801 13.2979C8.16609 13.2515 8.13379 13.1971 8.11426 13.1377C8.09477 13.0784 8.08754 13.0152 8.09375 12.9531L8.3418 10.4795H6.36328L6.11133 13C6.09908 13.1219 6.04198 13.2352 5.95117 13.3174C5.86027 13.3996 5.74172 13.4453 5.61914 13.4453H5.57227C5.51004 13.4452 5.4485 13.4324 5.3916 13.4072C5.33449 13.3819 5.28313 13.3442 5.24121 13.2979C5.1993 13.2515 5.16699 13.197 5.14746 13.1377C5.12798 13.0784 5.12172 13.0152 5.12793 12.9531L5.375 10.4795H3.59473C3.2653 10.4795 3.10072 10.3147 3.10059 9.98535C3.10059 9.65576 3.26517 9.49027 3.59473 9.49023H5.47363L5.67188 7.50977H3.59473C3.26519 7.50973 3.10061 7.34518 3.10059 7.01562C3.10059 6.68603 3.26517 6.52152 3.59473 6.52148H5.77051L6.02246 4.00195C6.03471 3.8801 6.09185 3.76678 6.18262 3.68457C6.27352 3.60234 6.39207 3.55664 6.51465 3.55664H6.56152ZM6.46191 9.49023H8.44043L8.63867 7.50977H6.66016L6.46191 9.49023Z" fill="#666F8D"/>
</svg>
