<svg width="14" height="14" viewBox="0 0 14 14" fill="none" xmlns="http://www.w3.org/2000/svg">
<path d="M1.75 6.91602C2.11819 6.91602 2.41699 7.21482 2.41699 7.58301V11.583H6.41699L6.55078 11.5967C6.85465 11.6588 7.08301 11.9278 7.08301 12.25C7.08274 12.572 6.85446 12.8403 6.55078 12.9023L6.41699 12.916H1.75C1.382 12.916 1.08332 12.6179 1.08301 12.25V7.58301C1.08301 7.21482 1.38181 6.91602 1.75 6.91602ZM12.25 1.08301C12.618 1.08318 12.916 1.38192 12.916 1.75V6.41699C12.9158 6.78492 12.6179 7.08283 12.25 7.08301C11.8821 7.08285 11.5832 6.78494 11.583 6.41699V2.41699H7.58301C7.21495 2.41684 6.91602 2.11809 6.91602 1.75C6.91602 1.38191 7.21495 1.08316 7.58301 1.08301H12.25Z" fill="#666F8D"/>
</svg>
