<svg width="34" height="34" viewBox="0 0 34 34" fill="none" xmlns="http://www.w3.org/2000/svg">
<circle cx="17" cy="17" r="17" fill="white"/>
<path d="M19.4609 6.75052C19.4607 14.6223 13.0794 21.0037 5.20755 21.0038H4.45703V15.5833H5.20755C10.0856 15.5832 14.0402 11.6285 14.0404 6.75052V6H19.4609V6.75052Z" fill="#6A38EF"/>
<g style="mix-blend-mode:plus-darker">
<path d="M14.0548 6.75052C14.0549 14.6223 20.4363 21.0037 28.3081 21.0038H29.0586V15.5833H28.3081C23.4301 15.5832 19.4754 11.6285 19.4752 6.75052V6H14.0548V6.75052ZM26.3772 16.1385V16.1393V16.1385ZM24.2861 15.4482C24.5238 15.5584 24.7659 15.6611 25.0138 15.7518C24.7659 15.6611 24.5238 15.5584 24.2861 15.4482ZM20.6906 12.5617C20.9502 12.9015 21.2304 13.2245 21.5323 13.5263C21.2304 13.2245 20.9501 12.9015 20.6906 12.5617ZM19.9799 11.4889L20.1126 11.7192C20.1927 11.851 20.2756 11.9808 20.3617 12.1083L20.1126 11.7201C20.0665 11.6442 20.024 11.5661 19.9799 11.4889ZM19.1562 9.59955C19.2181 9.79887 19.2885 9.99459 19.3629 10.1881C19.2886 9.99483 19.2181 9.79943 19.1562 9.60037V9.59955ZM18.9201 8.68216V8.68135V8.68216Z" fill="#F670C7"/>
</g>
<path d="M22.7947 20.1719C22.7947 23.3944 20.1823 26.0067 16.9598 26.0067C13.7373 26.0067 11.125 23.3944 11.125 20.1719H22.7947Z" fill="#6A38EF"/>
</svg>
