<svg width="16" height="16" viewBox="0 0 16 16" fill="none" xmlns="http://www.w3.org/2000/svg">
<path d="M12.8728 11.7903L11.5874 10.5049C12.2446 9.61579 12.6408 8.51401 12.6408 7.32525C12.6408 4.38718 10.2537 2 7.31559 2C4.37752 2 2 4.39685 2 7.33492C2 10.273 4.38718 12.6602 7.32525 12.6602C8.51401 12.6602 9.61579 12.2639 10.5049 11.6067L11.7903 12.8921C11.945 13.0468 12.1383 13.1144 12.3412 13.1144C12.5442 13.1144 12.7375 13.0371 12.8921 12.8921C13.1724 12.5829 13.1724 12.09 12.8728 11.7903ZM7.32525 11.1042C5.24734 11.1042 3.54635 9.41283 3.54635 7.32525C3.54635 5.24734 5.23768 3.54635 7.32525 3.54635C9.40316 3.54635 11.1042 5.23768 11.1042 7.32525C11.0945 9.41283 9.40316 11.1042 7.32525 11.1042Z" fill="#666F8D"/>
</svg>
