<svg width="18" height="18" viewBox="0 0 18 18" fill="none" xmlns="http://www.w3.org/2000/svg">
<path d="M12.8452 14.5595H5.90476V6.3571L10.3214 1.94043L11.1101 2.72912C11.1837 2.80273 11.2443 2.90263 11.2918 3.02882C11.3394 3.15501 11.3629 3.27595 11.3625 3.39162V3.61245L10.6685 6.3571H14.7381C15.0746 6.3571 15.369 6.48329 15.6214 6.73567C15.8738 6.98805 16 7.28249 16 7.619V8.88091C16 8.95452 15.9895 9.03339 15.9685 9.11751C15.9474 9.20164 15.9264 9.28051 15.9054 9.35412L14.0125 13.8023C13.9179 14.0127 13.7601 14.1914 13.5393 14.3386C13.3185 14.4859 13.0871 14.5595 12.8452 14.5595ZM7.16667 13.2976H12.8452L14.7381 8.88091V7.619H9.05952L9.91131 4.14876L7.16667 6.89341V13.2976ZM5.90476 6.3571V7.619H4.0119V13.2976H5.90476V14.5595H2.75V6.3571H5.90476Z" fill="#666F8D"/>
</svg>
