<svg width="116" height="24" viewBox="0 0 116 24" fill="none" xmlns="http://www.w3.org/2000/svg">
<path d="M115.757 2.71992V5.60919H112.674V2.71992H115.757ZM115.709 20.444H112.722V7.81862H115.709V20.444Z" fill="#110C22"/>
<path d="M109.261 20.444H106.274V12.5774C106.274 10.8536 105.4 10.1252 103.968 10.1252C102.559 10.1252 101.661 10.9264 101.661 12.6017V20.444H98.6505V12.5774C98.6505 10.9021 97.7521 10.1252 96.3439 10.1252C94.9357 10.1252 94.0374 10.9264 94.0374 12.6017V20.444H91.051V7.81864H93.8431L94.0616 9.44536C94.6686 8.13427 95.8098 7.52728 97.3394 7.52728C99.0389 7.52728 100.374 8.25567 101.03 9.5182C101.734 8.23139 103.069 7.52728 104.89 7.52728C107.512 7.52728 109.261 9.15401 109.261 12.1161V20.444Z" fill="#110C22"/>
<path d="M76.8207 7.81863H79.8071V15.7095C79.8071 17.3848 80.6083 18.186 82.0651 18.186C83.4733 18.186 84.4202 17.3362 84.4202 15.6609V7.81863H87.4066V20.444H84.6144L84.3959 18.8173C83.5704 20.2012 82.4778 20.7353 80.9482 20.7353C78.496 20.7353 76.8207 19.1086 76.8207 16.2679V7.81863Z" fill="#110C22"/>
<path d="M75.1665 20.444H71.5003L66.96 14.8597V20.444H63.9736V2.47714H66.9843V13.1844L71.2332 7.84292H74.8023L69.7036 13.9128L75.1665 20.444Z" fill="#110C22"/>
<path d="M60.4905 20.444H57.8683L57.6983 18.7687C56.9942 20.1526 55.9745 20.7353 54.3477 20.7353C51.9198 20.7353 50.2931 19.1086 50.2931 16.8992C50.2931 14.4469 51.9441 12.6988 54.7119 12.6988H57.674V12.0433C57.674 10.6351 56.8242 9.85812 55.3189 9.85812C54.2263 9.85812 53.328 10.2466 52.5753 10.9264L51.1914 8.95977C52.5753 7.94004 53.9835 7.52728 55.5132 7.52728C58.7423 7.52728 60.4905 9.05689 60.4905 12.5289V20.444ZM57.674 14.8597H55.0276C53.7165 14.8597 53.0609 15.491 53.0609 16.6807C53.0609 17.7004 53.7165 18.3317 55.0518 18.3317C56.7271 18.3317 57.674 17.3605 57.674 15.2967V14.8597Z" fill="#110C22"/>
<path d="M48.8681 5.82771H44.2793V20.444H41.1958V5.82771H36.7527L36.4856 2.96272H48.8681V5.82771Z" fill="#110C22"/>
<path d="M18 0.900406C17.9998 10.3442 10.3441 17.9998 0.900391 18H0V11.4971H0.900391C6.75252 11.4969 11.4969 6.75253 11.4971 0.900406V1.52588e-05H18V0.900406Z" fill="#6A38EF"/>
<g style="mix-blend-mode:plus-darker">
<path d="M11.5154 0.900406C11.5156 10.3442 19.1712 17.9998 28.615 18H29.5154V11.4971H28.615C22.7629 11.4969 18.0185 6.75253 18.0183 0.900406V1.52588e-05H11.5154V0.900406ZM26.2986 12.1631V12.1641V12.1631ZM23.7898 11.335C24.0751 11.4671 24.3655 11.5904 24.6628 11.6992C24.3655 11.5904 24.0751 11.4671 23.7898 11.335ZM19.4763 7.87209C19.7877 8.27969 20.124 8.6672 20.4861 9.02931C20.124 8.66719 19.7877 8.2797 19.4763 7.87209ZM18.6238 6.58498L18.783 6.86134C18.879 7.01942 18.9785 7.17519 19.0818 7.32814L18.783 6.86232C18.7276 6.77128 18.6766 6.67765 18.6238 6.58498ZM17.6355 4.31837C17.7099 4.55749 17.7943 4.79229 17.8835 5.02443C17.7944 4.79258 17.7098 4.55816 17.6355 4.31935V4.31837ZM17.3523 3.21779V3.21681V3.21779Z" fill="#F670C7"/>
</g>
<path d="M22 17C22 20.866 18.866 24 15 24C11.134 24 8 20.866 8 17H22Z" fill="#6A38EF"/>
</svg>
