<svg t="1750942286600" class="icon" viewBox="0 0 1024 1024" version="1.1" xmlns="http://www.w3.org/2000/svg" p-id="1507" width="18" height="18"><path d="M435.053714 109.750857h2.084572a28.086857 28.086857 0 0 1 0 56.137143c-71.350857 0-122.038857 0.073143-160.548572 5.193143-37.595429 5.12-59.355429 14.555429-75.154285 30.427428-15.835429 15.835429-25.307429 37.522286-30.354286 75.154286-5.193143 38.473143-5.266286 89.161143-5.266286 160.512a28.086857 28.086857 0 0 1-56.100571 0v-2.121143c0-68.754286 0-123.245714 5.705143-165.888 5.924571-43.849143 18.358857-79.323429 46.336-107.373714 27.977143-27.977143 63.524571-40.411429 107.373714-46.336C311.808 109.714286 366.262857 109.714286 435.053714 109.714286v0.036571z m312.283429 61.366857c-38.4-5.156571-89.161143-5.266286-160.548572-5.266285a28.086857 28.086857 0 0 1 0-56.100572h2.121143c68.827429 0 123.245714 0 165.924572 5.705143 43.849143 5.924571 79.323429 18.358857 107.373714 46.336 27.977143 28.013714 40.411429 63.524571 46.336 107.373714C914.285714 311.844571 914.285714 366.299429 914.285714 435.053714v2.121143a28.050286 28.050286 0 1 1-56.137143 0c0-71.350857-0.073143-122.038857-5.193142-160.548571-5.12-37.595429-14.555429-59.355429-30.427429-75.154286-15.835429-15.835429-37.522286-25.307429-75.154286-30.354286zM137.764571 558.811429c15.469714 0 28.086857 12.544 28.086858 28.050285 0 71.350857 0.036571 122.112 5.193142 160.548572 5.083429 37.595429 14.555429 59.355429 30.427429 75.117714 15.835429 15.872 37.522286 25.344 75.154286 30.427429 38.473143 5.12 89.161143 5.193143 160.512 5.193142a28.123429 28.123429 0 0 1 0 56.173715h-2.084572c-68.754286 0-123.245714 0-165.924571-5.741715-43.885714-5.924571-79.36-18.358857-107.373714-46.336-27.977143-28.013714-40.411429-63.524571-46.336-107.373714C109.714286 712.155429 109.714286 657.700571 109.714286 588.946286v-2.121143c0-15.433143 12.507429-28.086857 28.050285-28.086857v0.073143z m748.434286 0c15.469714 0 28.086857 12.544 28.086857 28.050285v2.121143c0 68.790857 0 123.245714-5.741714 165.888-5.924571 43.849143-18.358857 79.323429-46.336 107.373714-28.013714 27.977143-63.524571 40.411429-107.373714 46.336-42.678857 5.705143-97.170286 5.705143-165.924572 5.705143h-2.084571a28.050286 28.050286 0 1 1 0-56.137143c71.314286 0 122.075429-0.073143 160.512-5.193142 37.632-5.12 59.355429-14.555429 75.154286-30.427429 15.872-15.835429 25.344-37.522286 30.427428-75.154286 5.12-38.4 5.193143-89.161143 5.193143-160.512 0-15.433143 12.580571-28.086857 28.086857-28.086857v0.073143z m-370.102857-286.061715a35.766857 35.766857 0 0 1 66.633143 0l41.910857 106.459429c3.693714 9.179429 10.971429 16.457143 20.260571 20.150857l106.422858 41.910857a35.84 35.84 0 0 1 0 66.633143l-106.532572 41.947429a35.949714 35.949714 0 0 0-20.114286 20.224l-41.947428 106.422857a35.766857 35.766857 0 0 1-66.596572 0l-41.910857-106.496a35.913143 35.913143 0 0 0-20.260571-20.114286l-106.422857-41.947429a35.766857 35.766857 0 0 1 0-66.596571l106.459428-41.984a35.876571 35.876571 0 0 0 20.150857-20.187429l41.984-106.422857z" p-id="1508"></path><path d="M333.897143 630.930286a14.592 14.592 0 0 1 27.136 0l17.078857 43.300571a14.518857 14.518857 0 0 0 8.301714 8.228572l43.300572 17.078857a14.628571 14.628571 0 0 1 0 27.099428l-43.410286 17.078857a14.628571 14.628571 0 0 0-8.155429 8.301715l-17.078857 43.264a14.628571 14.628571 0 0 1-27.172571 0l-17.078857-43.373715a14.628571 14.628571 0 0 0-8.228572-8.192l-43.373714-17.078857a14.555429 14.555429 0 0 1 0-27.099428l43.410286-17.078857a14.628571 14.628571 0 0 0 8.192-8.301715l17.078857-43.264z" p-id="1509"></path></svg>