<svg width="16" height="16" viewBox="0 0 16 16" fill="none" xmlns="http://www.w3.org/2000/svg">
<path d="M8 6.88889C7.7692 6.88889 7.54358 6.95405 7.35167 7.07614C7.15977 7.19824 7.01019 7.37177 6.92187 7.5748C6.83354 7.77782 6.81043 8.00123 6.85546 8.21677C6.90049 8.4323 7.01163 8.63028 7.17483 8.78567C7.33804 8.94107 7.54597 9.04689 7.77234 9.08976C7.99871 9.13263 8.23334 9.11063 8.44658 9.02653C8.65981 8.94244 8.84207 8.80002 8.97029 8.6173C9.09852 8.43458 9.16696 8.21976 9.16696 8C9.16696 7.70532 9.04401 7.4227 8.82517 7.21433C8.60632 7.00595 8.3095 6.88889 8 6.88889ZM8 5.77778C8.46161 5.77778 8.91285 5.90811 9.29666 6.15229C9.68047 6.39647 9.97961 6.74353 10.1563 7.14959C10.3329 7.55565 10.3791 8.00247 10.2891 8.43353C10.199 8.8646 9.97674 9.26057 9.65033 9.57135C9.32393 9.88213 8.90806 10.0938 8.45533 10.1795C8.00259 10.2653 7.53332 10.2213 7.10685 10.0531C6.68038 9.88487 6.31587 9.60004 6.05941 9.2346C5.80296 8.86916 5.66608 8.43951 5.66608 8C5.66608 7.41063 5.91197 6.8454 6.34967 6.42865C6.78736 6.0119 7.38101 5.77778 8 5.77778ZM13.5022 7.60556C13.1567 7.09186 12.7663 6.60681 12.3353 6.15556C11.0458 4.87222 9.60457 4.11111 8 4.11111C6.39543 4.11111 4.95423 4.87222 3.68224 6.15556C3.25116 6.60681 2.86079 7.09186 2.51528 7.60556L2.24688 8L2.49778 8.39444C2.84329 8.90814 3.23366 9.39319 3.66474 9.84444C4.95423 11.1278 6.39543 11.8889 8 11.8889C9.60457 11.8889 11.0458 11.1278 12.3178 9.84444C12.7488 9.39319 13.1392 8.90814 13.4847 8.39444L13.7531 8L13.5022 7.60556ZM14.9376 8.25C14.7995 8.50545 14.6476 8.75393 14.4825 8.99444C14.0955 9.56697 13.6541 10.1044 13.1638 10.6C11.6993 12.0944 9.97216 13 8 13C6.02784 13 4.30073 12.0944 2.8362 10.6C2.34591 10.1044 1.90449 9.56697 1.51753 8.99444C1.35245 8.75393 1.20054 8.50545 1.06242 8.25C1.02138 8.17246 1 8.08683 1 8C1 7.91317 1.02138 7.82754 1.06242 7.75C1.20054 7.49455 1.35245 7.24607 1.51753 7.00556C1.90449 6.43303 2.34591 5.89559 2.8362 5.4C4.30073 3.90556 6.02784 3 8 3C9.97216 3 11.6993 3.90556 13.1638 5.4C13.6541 5.89559 14.0955 6.43303 14.4825 7.00556C14.6476 7.24607 14.7995 7.49455 14.9376 7.75C14.9786 7.82754 15 7.91317 15 8C15 8.08683 14.9786 8.17246 14.9376 8.25Z" fill="#666F8D"/>
</svg>
