<svg width="18" height="18" viewBox="0 0 18 18" fill="none" xmlns="http://www.w3.org/2000/svg">
<path d="M14.8486 8.14355C14.9386 8.14359 15.0284 8.16124 15.1113 8.19629C15.1941 8.23135 15.2691 8.2834 15.332 8.34766C15.395 8.41205 15.4458 8.48871 15.4795 8.57227C15.513 8.65556 15.5296 8.74516 15.5293 8.83496L15.5215 9.15039C15.4434 10.7222 14.7947 12.2144 13.6943 13.333C12.5208 14.5259 10.9289 15.1959 9.26855 15.1963C8.16387 15.2068 7.07658 14.9157 6.12109 14.3525C5.16545 13.7892 4.37665 12.9744 3.83691 11.9951L3.83301 11.9893C3.78449 11.8935 3.75931 11.7871 3.75879 11.6797V11.6133L3.76855 11.5996C3.78565 11.4412 3.85368 11.2922 3.96777 11.1797C4.09441 11.0549 4.26467 10.9847 4.44238 10.9844H7.0166C7.10606 10.9847 7.19496 11.0022 7.27734 11.0371C7.35961 11.0721 7.43446 11.1236 7.49707 11.1875C7.55966 11.2516 7.60992 11.3281 7.64355 11.4111C7.67714 11.4943 7.69453 11.5841 7.69434 11.6738C7.69379 11.8544 7.62263 12.0285 7.49609 12.1572C7.36947 12.286 7.1971 12.3598 7.0166 12.3604H5.77344C6.1807 12.7716 6.65532 13.1096 7.17773 13.3555C7.83324 13.6639 8.5476 13.8223 9.26953 13.8193H9.27051C10.5675 13.8181 11.8121 13.2934 12.7305 12.3594C13.5915 11.4836 14.1004 10.3146 14.1621 9.08203L14.168 8.83496C14.1675 8.74503 14.1852 8.6557 14.2188 8.57227C14.2524 8.48848 14.3021 8.41217 14.3652 8.34766C14.4284 8.28311 14.5037 8.23134 14.5869 8.19629C14.6698 8.16144 14.7588 8.14344 14.8486 8.14355ZM7.18066 12.126C7.12894 12.1457 7.07481 12.1577 7.01855 12.1582C7.02807 12.1581 7.03743 12.1569 7.04688 12.1562C7.06236 12.1552 7.07757 12.154 7.09277 12.1514C7.107 12.1489 7.12086 12.1453 7.13477 12.1416C7.1489 12.1373 7.16301 12.1333 7.17676 12.1279C7.17812 12.1274 7.17931 12.1265 7.18066 12.126ZM4.0127 11.4541C4.01046 11.4587 4.00796 11.4631 4.00586 11.4678C4.01764 11.4419 4.03175 11.4171 4.04785 11.3936L4.0127 11.4541ZM9.05957 2.47266C10.1642 2.46188 11.2517 2.75188 12.207 3.31543C13.0432 3.80881 13.7514 4.49518 14.2764 5.31543L14.4902 5.67578L14.4912 5.67773C14.5426 5.77412 14.57 5.88197 14.5703 5.99121V6.0166C14.5643 6.19455 14.4902 6.36449 14.3633 6.48926C14.2363 6.61397 14.0656 6.68455 13.8877 6.68457H11.3145C11.2249 6.68436 11.1353 6.6658 11.0527 6.63086C10.9704 6.5959 10.8957 6.5444 10.833 6.48047C10.7703 6.41639 10.7202 6.33997 10.6865 6.25684C10.6698 6.21553 10.6569 6.17245 10.6484 6.12891L10.6357 5.99512C10.6358 5.81414 10.7072 5.63975 10.834 5.51074C10.9609 5.38176 11.1335 5.3086 11.3145 5.30859H12.5576C12.1506 4.89625 11.6762 4.55698 11.1533 4.31055C10.4976 4.00158 9.78284 3.84324 9.06055 3.84668H9.05957C7.76278 3.84844 6.51857 4.37347 5.60059 5.30762C4.68242 6.24202 4.16545 7.51024 4.16406 8.83301C4.16386 9.01436 4.09289 9.18907 3.96582 9.31836C3.83853 9.44785 3.66491 9.5214 3.4834 9.52148C3.39372 9.52146 3.30436 9.50354 3.22168 9.46875C3.13907 9.4339 3.0639 9.3823 3.00098 9.31836C2.93811 9.25435 2.88839 9.17786 2.85449 9.09473C2.82074 9.0117 2.80283 8.92265 2.80273 8.83301V8.83203C2.8046 7.1466 3.46333 5.52966 4.63574 4.33691C5.80801 3.14439 7.39847 2.47465 9.05762 2.47266V2.47168L9.05859 2.47266L9.05957 2.47168V2.47266ZM14.3281 9.45898C14.3326 9.42154 14.3391 9.38427 14.3428 9.34668L14.3438 9.33105C14.3397 9.37386 14.3333 9.41637 14.3281 9.45898ZM3.67578 9.27832C3.69425 9.27007 3.71187 9.26007 3.72949 9.25C3.73557 9.24626 3.74213 9.24327 3.74805 9.23926L3.75 9.23633C3.72617 9.25212 3.70171 9.26674 3.67578 9.27832ZM15.0039 8.37207C14.9832 8.36474 14.9628 8.3569 14.9414 8.35254L14.9346 8.35156C14.9583 8.35594 14.981 8.36423 15.0039 8.37207ZM11.1816 5.52832C11.1679 5.53232 11.154 5.53578 11.1406 5.54102C11.1665 5.53077 11.1934 5.52312 11.2207 5.51758L11.1816 5.52832Z" fill="#666F8D"/>
</svg>
