<svg width="16" height="16" viewBox="0 0 16 16" fill="none" xmlns="http://www.w3.org/2000/svg">
<path d="M4.94071 6.58823H3.08C2.94885 7.04734 2.88256 7.52253 2.88306 8C2.88306 8.48988 2.95153 8.96353 3.08071 9.41176H4.94141C4.86376 8.96 4.82424 8.48918 4.82424 8C4.82424 7.51082 4.86376 7.04 4.94141 6.58823H4.94071ZM5.65859 6.58823C5.57089 7.05367 5.52764 7.52638 5.52941 8C5.52941 8.49271 5.57176 8.96353 5.65859 9.41176H7.64706V6.58823H5.65859ZM6.69271 12.9489C5.93983 12.1483 5.39284 11.1766 5.09882 10.1176H3.33976C3.65442 10.8082 4.11837 11.4204 4.69818 11.91C5.27798 12.3996 5.9592 12.7544 6.69271 12.9489ZM7.64706 12.8995V10.1176H5.83506C6.16682 11.1807 6.77035 12.1061 7.64706 12.9002V12.8995ZM6.69271 3.05176C5.95926 3.24622 5.27809 3.60097 4.69829 4.09045C4.11849 4.57992 3.6545 5.19192 3.33976 5.88235H5.09882C5.39263 4.82344 5.93938 3.8518 6.692 3.05106L6.69271 3.05176ZM7.64706 3.10118C6.77035 3.89318 6.16753 4.81859 5.83506 5.88235H7.64706V3.09976V3.10118ZM11.0593 6.58823C11.1369 7.04 11.1765 7.51082 11.1765 8C11.1765 8.48918 11.1369 8.96 11.0593 9.41176H12.9207C13.0492 8.96353 13.1176 8.48988 13.1176 8C13.1176 7.51012 13.0492 7.03647 12.92 6.58823H11.0593ZM10.3414 6.58823H8.35294V9.41176H10.3414C10.4275 8.96353 10.4706 8.49271 10.4706 8C10.4706 7.50729 10.4282 7.03647 10.3414 6.58823ZM9.30729 12.9489C10.0408 12.7544 10.722 12.3996 11.3018 11.91C11.8816 11.4204 12.3456 10.8082 12.6602 10.1176H10.9012C10.6074 11.1766 10.0606 12.1482 9.308 12.9489H9.30729ZM8.35294 12.8995C9.22965 12.1061 9.83247 11.1807 10.1649 10.1176H8.35294V12.9002V12.8995ZM9.30729 3.05176C10.0601 3.85223 10.6071 4.82363 10.9012 5.88235H12.6609C12.3463 5.19179 11.8823 4.57965 11.3025 4.09005C10.7227 3.60045 10.0415 3.24559 9.308 3.05106L9.30729 3.05176ZM8.35294 3.10118V5.88235H10.1649C9.83318 4.81929 9.22965 3.89388 8.35294 3.09976V3.10118ZM8 14C6.4087 14 4.88258 13.3679 3.75736 12.2426C2.63214 11.1174 2 9.5913 2 8C2 6.4087 2.63214 4.88258 3.75736 3.75736C4.88258 2.63214 6.4087 2 8 2C9.5913 2 11.1174 2.63214 12.2426 3.75736C13.3679 4.88258 14 6.4087 14 8C14 9.5913 13.3679 11.1174 12.2426 12.2426C11.1174 13.3679 9.5913 14 8 14Z" fill="#666F8D"/>
</svg>
