<svg width="16" height="16" viewBox="0 0 16 16" fill="none" xmlns="http://www.w3.org/2000/svg">
<path d="M12.4042 4.21962C12.6971 3.92683 13.1719 3.92676 13.4647 4.21962C13.7575 4.51249 13.7575 4.9873 13.4647 5.28017L7.51842 11.2255C7.50075 11.2477 7.48235 11.2703 7.46178 11.2909C7.3143 11.4382 7.12081 11.5107 6.9276 11.5097C6.73445 11.5106 6.54082 11.4383 6.39342 11.2909C6.37264 11.2701 6.35364 11.248 6.33581 11.2255L3.21959 8.10829C2.92685 7.81539 2.92675 7.34059 3.21959 7.04775C3.51245 6.75505 3.98729 6.75505 4.28014 7.04775L6.9276 9.69521L12.4042 4.21962Z" fill="#666F8D"/>
</svg>
