<svg width="12" height="12" viewBox="0 0 12 12" fill="none" xmlns="http://www.w3.org/2000/svg">
<path d="M6 0C2.68629 0 0 2.68629 0 6C0 9.31371 2.68629 12 6 12C7.41293 12 8.71326 11.5109 9.73855 10.6932C9.99762 10.4865 10.0401 10.109 9.83352 9.84996C9.6269 9.59089 9.24939 9.54837 8.99032 9.75499C8.16991 10.4093 7.13141 10.8 6 10.8C3.34903 10.8 1.2 8.65097 1.2 6C1.2 3.34903 3.34903 1.2 6 1.2C8.65097 1.2 10.8 3.34903 10.8 6C10.8 6.33137 11.0686 6.6 11.4 6.6C11.7314 6.6 12 6.33137 12 6C12 2.68629 9.31371 0 6 0Z" fill="#7357FF"/>
</svg>
