  <svg
    width="16"
    height="16"
    viewBox="0 0 16 16"
    fill="none"
    xmlns="http://www.w3.org/2000/svg"
  >
    <path
      d="M4 9.66634C4 9.62257 4.00862 9.57922 4.02537 9.53878C4.04213 9.49834 4.06668 9.46159 4.09763 9.43064C4.12858 9.39969 4.16533 9.37513 4.20577 9.35838C4.24621 9.34163 4.28956 9.33301 4.33333 9.33301H5C5.04377 9.33301 5.08712 9.34163 5.12756 9.35838C5.168 9.37513 5.20475 9.39969 5.2357 9.43064C5.26665 9.46159 5.29121 9.49834 5.30796 9.53878C5.32471 9.57922 5.33333 9.62257 5.33333 9.66634V10.333C5.33333 10.3768 5.32471 10.4201 5.30796 10.4606C5.29121 10.501 5.26665 10.5378 5.2357 10.5687C5.20475 10.5997 5.168 10.6242 5.12756 10.641C5.08712 10.6577 5.04377 10.6663 5 10.6663H4.33333C4.28956 10.6663 4.24621 10.6577 4.20577 10.641C4.16533 10.6242 4.12858 10.5997 4.09763 10.5687C4.06668 10.5378 4.04213 10.501 4.02537 10.4606C4.00862 10.4201 4 10.3768 4 10.333V9.66634ZM7 9.33301C6.95623 9.33301 6.91288 9.34163 6.87244 9.35838C6.832 9.37513 6.79525 9.39969 6.7643 9.43064C6.73335 9.46159 6.70879 9.49834 6.69204 9.53878C6.67529 9.57922 6.66667 9.62257 6.66667 9.66634V10.333C6.66667 10.3768 6.67529 10.4201 6.69204 10.4606C6.70879 10.501 6.73335 10.5378 6.7643 10.5687C6.79525 10.5997 6.832 10.6242 6.87244 10.641C6.91288 10.6577 6.95623 10.6663 7 10.6663H11.6667C11.7104 10.6663 11.7538 10.6577 11.7942 10.641C11.8347 10.6242 11.8714 10.5997 11.9024 10.5687C11.9333 10.5378 11.9579 10.501 11.9746 10.4606C11.9914 10.4201 12 10.3768 12 10.333V9.66634C12 9.62257 11.9914 9.57922 11.9746 9.53878C11.9579 9.49834 11.9333 9.46159 11.9024 9.43064C11.8714 9.39969 11.8347 9.37513 11.7942 9.35838C11.7538 9.34163 11.7104 9.33301 11.6667 9.33301H7Z"
      fill="#666F8D"
    />
    <path
      d="M6 2C6.13261 2 6.25979 2.05268 6.35355 2.14645C6.44732 2.24021 6.5 2.36739 6.5 2.5V3H9.5V2.5C9.5 2.36739 9.55268 2.24021 9.64645 2.14645C9.74021 2.05268 9.86739 2 10 2C10.1326 2 10.2598 2.05268 10.3536 2.14645C10.4473 2.24021 10.5 2.36739 10.5 2.5V3H12.8333C13.4773 3 14 3.52267 14 4.16667V12.8333C14 13.1428 13.8771 13.4395 13.6583 13.6583C13.4395 13.8771 13.1428 14 12.8333 14H3.16667C2.85725 14 2.5605 13.8771 2.34171 13.6583C2.12292 13.4395 2 13.1428 2 12.8333V4.16667C2 3.52267 2.52267 3 3.16667 3H5.5V2.5C5.5 2.43434 5.51293 2.36932 5.53806 2.30866C5.56319 2.248 5.60002 2.19288 5.64645 2.14645C5.69288 2.10002 5.748 2.06319 5.80866 2.03806C5.86932 2.01293 5.93434 2 6 2ZM5.5 4H3.16667C3.12246 4 3.08007 4.01756 3.04882 4.04882C3.01756 4.08007 3 4.12246 3 4.16667V6.33333H13V4.16667C13 4.12246 12.9824 4.08007 12.9512 4.04882C12.9199 4.01756 12.8775 4 12.8333 4H10.5V4.83333C10.5 4.96594 10.4473 5.09312 10.3536 5.18689C10.2598 5.28065 10.1326 5.33333 10 5.33333C9.86739 5.33333 9.74021 5.28065 9.64645 5.18689C9.55268 5.09312 9.5 4.96594 9.5 4.83333V4H6.5V4.83333C6.5 4.96594 6.44732 5.09312 6.35355 5.18689C6.25979 5.28065 6.13261 5.33333 6 5.33333C5.86739 5.33333 5.74021 5.28065 5.64645 5.18689C5.55268 5.09312 5.5 4.96594 5.5 4.83333V4ZM13 7.33333H3V12.8333C3 12.9253 3.07467 13 3.16667 13H12.8333C12.8775 13 12.9199 12.9824 12.9512 12.9512C12.9824 12.9199 13 12.8775 13 12.8333V7.33333Z"
      fill="#666F8D"
    />
  </svg>