<svg width="25" height="25" viewBox="0 0 25 25" fill="none" xmlns="http://www.w3.org/2000/svg">
<path d="M4.66309 21.999C3.74551 21.999 3.00016 21.2544 3 20.3369L3 4.66211C3 4.2212 3.17554 3.7981 3.48731 3.48633C3.79906 3.17464 4.22224 3 4.66309 3L20.3369 3C20.7777 3 21.2009 3.17469 21.5127 3.48633C21.8245 3.7981 22 4.2212 22 4.66211L22 20.3369C21.9998 21.2544 21.2545 21.999 20.3369 21.999L4.66309 21.999ZM20.3369 20.5742C20.3997 20.5742 20.4604 20.5492 20.5049 20.5049C20.5494 20.4604 20.5751 20.3998 20.5752 20.3369L20.5752 4.66211C20.5752 4.53101 20.468 4.4248 20.3369 4.4248L9.65039 4.4248L9.65039 20.5742L20.3369 20.5742ZM8.22559 4.4248L4.66309 4.4248C4.60016 4.4248 4.53964 4.44968 4.49512 4.49414C4.45058 4.53868 4.42578 4.59912 4.42578 4.66211L4.42578 20.3369C4.42586 20.3998 4.45065 20.4604 4.49512 20.5049C4.53963 20.5492 4.60023 20.5742 4.66309 20.5742L8.22559 20.5742L8.22559 4.4248ZM16.7314 16.0576C16.6076 16.0893 16.4772 16.0877 16.3545 16.0518C16.2318 16.0158 16.1214 15.947 16.0342 15.8535L13.1836 13.0039C13.0503 12.8703 12.9756 12.6887 12.9756 12.5C12.9757 12.3115 13.0504 12.1305 13.1836 11.9971L16.0342 9.14648C16.1692 9.02072 16.3478 8.95191 16.5322 8.95508C16.7168 8.95827 16.8929 9.03357 17.0234 9.16406C17.154 9.2946 17.2292 9.4707 17.2324 9.65527C17.2356 9.83994 17.167 10.0193 17.041 10.1543L14.6943 12.5L17.041 14.8467C17.1347 14.9337 17.2031 15.0444 17.2393 15.167C17.2754 15.2898 17.2778 15.4209 17.2461 15.5449C17.2144 15.6687 17.15 15.7818 17.0596 15.8721C16.969 15.9624 16.8554 16.0262 16.7314 16.0576Z" fill="#4F4B5C"/>
</svg>
