<svg width="20" height="20" viewBox="0 0 20 20" fill="none" xmlns="http://www.w3.org/2000/svg">
<path d="M9.99999 6.29014C11.0092 6.29014 11.8692 6.63959 12.5799 7.3385C13.2907 8.0374 13.646 8.87609 13.646 9.85455C13.646 10.833 13.2907 11.6717 12.5799 12.3706C11.8692 13.0695 11.0092 13.419 9.99999 13.419C8.99075 13.419 8.13077 13.0695 7.42004 12.3706C6.7093 11.6717 6.35394 10.833 6.35394 9.85455C6.35394 8.87609 6.7093 8.0374 7.42004 7.3385C8.13077 6.63959 8.99075 6.29014 9.99999 6.29014ZM18.1236 8.97393H20V10.7352H18.1236C17.9246 12.6082 17.1499 14.2087 15.7996 15.5366C14.4492 16.8646 12.8216 17.6403 10.9168 17.864V19.7091H9.08315V17.864C7.20682 17.6403 5.58635 16.8646 4.22174 15.5366C2.85714 14.2087 2.07534 12.6082 1.87633 10.7352H0V8.97393H1.87633C2.07534 7.10087 2.85714 5.50038 4.22174 4.17246C5.58635 2.84454 7.20682 2.06876 9.08315 1.84511V0H10.9168V1.84511C12.8216 2.06876 14.4492 2.84454 15.7996 4.17246C17.1499 5.50038 17.9246 7.10087 18.1236 8.97393ZM10.0213 16.1028C11.7839 16.1028 13.2836 15.4947 14.5202 14.2786C15.7569 13.0625 16.3752 11.5878 16.3752 9.85455C16.3752 8.12127 15.7569 6.64658 14.5202 5.43049C13.2836 4.21439 11.7839 3.60635 10.0213 3.60635C8.2587 3.60635 6.75195 4.21439 5.50106 5.43049C4.25017 6.64658 3.62473 8.12127 3.62473 9.85455C3.62473 11.5878 4.25017 13.0625 5.50106 14.2786C6.75195 15.4947 8.2587 16.1028 10.0213 16.1028Z" fill="black"/>
</svg>
