<svg width="18" height="19" viewBox="0 0 18 19" fill="none" xmlns="http://www.w3.org/2000/svg">
<path d="M9.00054 0C9.18795 8.06164e-05 9.37232 0.0490432 9.53475 0.142523L17.4638 4.7084C17.6267 4.8023 17.7623 4.93728 17.8565 5.10009C17.9507 5.263 18 5.44817 18 5.63634C18 5.82455 17.9506 6.00965 17.8565 6.1726C17.7623 6.33558 17.6269 6.47136 17.4638 6.56531L15.3813 7.76292L17.3623 8.85286C17.5304 8.94528 17.6706 9.08144 17.7683 9.2466C17.8659 9.41173 17.918 9.60024 17.918 9.79208C17.918 9.98389 17.866 10.1725 17.7683 10.3376C17.6706 10.5025 17.5303 10.6379 17.3623 10.7303L15.5628 11.7197L17.3623 12.7092C17.5304 12.8016 17.6706 12.9378 17.7683 13.1029C17.8659 13.2681 17.918 13.4566 17.918 13.6484C17.918 13.8402 17.866 14.0288 17.7683 14.1939C17.6706 14.3589 17.5303 14.4942 17.3623 14.5866L9.73059 18.7834C9.57253 18.8703 9.39522 18.9166 9.21484 18.9167C9.03427 18.9167 8.85627 18.8704 8.69806 18.7834L1.06639 14.5866C0.898482 14.4942 0.757946 14.3589 0.660354 14.1939C0.562697 14.0288 0.511729 13.8402 0.511678 13.6484C0.511678 13.4566 0.562783 13.268 0.660354 13.1029C0.757985 12.9379 0.898373 12.8016 1.06639 12.7092L2.86485 11.7197L1.06639 10.7303C0.898483 10.6379 0.757946 10.5025 0.660354 10.3376C0.562697 10.1725 0.511729 9.98389 0.511678 9.79208C0.511678 9.60031 0.562783 9.41169 0.660354 9.2466C0.757985 9.08155 0.898373 8.94528 1.06639 8.85286L2.82692 7.88391L0.536286 6.56531C0.290159 6.42354 0.110818 6.1895 0.0369414 5.91524C-0.0276784 5.67518 -0.00689251 5.42115 0.0943609 5.19647L0.142552 5.10214C0.236875 4.93849 0.372569 4.80259 0.536286 4.7084L8.46531 0.142523C8.62787 0.0489665 8.81298 0 9.00054 0ZM9.6947 15.2049L9.60755 15.2449C9.46107 15.3026 9.30328 15.3267 9.14614 15.3167C8.98905 15.3066 8.836 15.2623 8.69806 15.1864L3.96403 12.5831L2.02817 13.6474L9.21484 17.5991L16.4005 13.6484L14.4646 12.5831L9.6947 15.2049ZM9.6947 11.3486L9.60755 11.3886C9.46107 11.4463 9.30328 11.4703 9.14614 11.4603C8.98905 11.4503 8.836 11.406 8.69806 11.3301L3.96403 8.72674L2.02817 9.79106L9.21484 13.7428L16.4005 9.79208L14.4646 8.72674L9.6947 11.3486Z" fill="#110C22"/>
</svg>
