<svg width="15" height="15" viewBox="0 0 15 15" fill="none" xmlns="http://www.w3.org/2000/svg">
<path fill-rule="evenodd" clip-rule="evenodd" d="M5.2725 3.6111H9.4497C9.45616 3.69614 9.46852 3.77954 9.48636 3.86087L3.86087 9.48636C3.73569 9.4589 3.60565 9.44443 3.47222 9.44443H1.80555C0.808376 9.44443 0 10.2528 0 11.25V12.9166C0 13.9139 0.808376 14.7222 1.80555 14.7222H3.47222C4.42266 14.7222 5.20159 13.9879 5.2725 13.0555H11.1111V14.3055C11.1111 14.5864 11.2803 14.8396 11.5398 14.9471C11.7993 15.0546 12.098 14.9952 12.2965 14.7965L14.5188 12.5743C14.79 12.3032 14.79 11.8634 14.5188 11.5923L12.2965 9.37005C12.098 9.17144 11.7993 9.11203 11.5398 9.2195C11.2803 9.32699 11.1111 9.58022 11.1111 9.86109V11.1111H5.2725C5.26604 11.026 5.25367 10.9426 5.23582 10.8613L10.8613 5.23582C10.9864 5.26329 11.1165 5.27777 11.25 5.27777H12.9166C13.9139 5.27777 14.7222 4.46939 14.7222 3.47222V1.80555C14.7222 0.808376 13.9139 0 12.9166 0H11.25C10.2995 0 9.52061 0.734376 9.4497 1.66666H5.2725C5.20159 0.734376 4.42266 0 3.47222 0H1.80555C0.808376 0 0 0.808376 0 1.80555V3.47222C0 4.46939 0.808376 5.27777 1.80555 5.27777H3.47222C4.42266 5.27777 5.20159 4.54339 5.2725 3.6111ZM11.25 1.38889C11.0199 1.38889 10.8333 1.57543 10.8333 1.80555V3.47222C10.8333 3.70234 11.0199 3.88888 11.25 3.88888H12.9166C13.1468 3.88888 13.3333 3.70234 13.3333 3.47222V1.80555C13.3333 1.57543 13.1468 1.38889 12.9166 1.38889H11.25ZM1.80555 10.8333C1.57543 10.8333 1.38889 11.0199 1.38889 11.25V12.9166C1.38889 13.1468 1.57543 13.3333 1.80555 13.3333H3.47222C3.70234 13.3333 3.88888 13.1468 3.88888 12.9166V11.25C3.88888 11.0199 3.70234 10.8333 3.47222 10.8333H1.80555ZM1.38889 1.80555C1.38889 1.57543 1.57543 1.38889 1.80555 1.38889H3.47222C3.70234 1.38889 3.88888 1.57543 3.88888 1.80555V3.47222C3.88888 3.70234 3.70234 3.88888 3.47222 3.88888H1.80555C1.57543 3.88888 1.38889 3.70234 1.38889 3.47222V1.80555Z" fill="black"/>
</svg>
