<svg width="80" height="19" viewBox="0 0 80 19" fill="none" xmlns="http://www.w3.org/2000/svg">
<path d="M80 0.245013V3.16082H76.8882V0.245013H80ZM79.951 18.1319H76.9372V5.39056H79.951V18.1319Z" fill="#110C22"/>
<path d="M73.4436 18.1319H70.4298V10.1931C70.4298 8.45339 69.5477 7.71832 68.1021 7.71832C66.6809 7.71832 65.7743 8.5269 65.7743 10.2176V18.1319H62.736V10.1931C62.736 8.5024 61.8294 7.71832 60.4083 7.71832C58.9871 7.71832 58.0805 8.5269 58.0805 10.2176V18.1319H55.0667V5.39057H57.8845L58.105 7.03224C58.7176 5.7091 59.8692 5.09654 61.4129 5.09654C63.1281 5.09654 64.4757 5.83162 65.1373 7.10575C65.8478 5.80711 67.1955 5.09654 69.0332 5.09654C71.6795 5.09654 73.4436 6.73821 73.4436 9.72753V18.1319Z" fill="#110C22"/>
<path d="M40.7057 5.39057H43.7195V13.3539C43.7195 15.0446 44.5281 15.8532 45.9983 15.8532C47.4194 15.8532 48.375 14.9956 48.375 13.3049V5.39057H51.3888V18.1319H48.571L48.3505 16.4902C47.5174 17.8869 46.4148 18.4259 44.8711 18.4259C42.3964 18.4259 40.7057 16.7843 40.7057 13.9175V5.39057Z" fill="#110C22"/>
<path d="M39.0363 18.1319H35.3364L30.7544 12.4963V18.1319H27.7406V0H30.7789V10.8056L35.0668 5.41507H38.6687L33.5232 11.5407L39.0363 18.1319Z" fill="#110C22"/>
<path d="M24.2254 18.1319H21.5791L21.4076 16.4412C20.697 17.8379 19.6679 18.4259 18.0263 18.4259C15.576 18.4259 13.9343 16.7843 13.9343 14.5545C13.9343 12.0798 15.6005 10.3156 18.3938 10.3156H21.3831V9.65402C21.3831 8.23287 20.5255 7.44879 19.0064 7.44879C17.9037 7.44879 16.9971 7.84083 16.2376 8.5269L14.8409 6.54219C16.2376 5.51308 17.6587 5.09654 19.2024 5.09654C22.4612 5.09654 24.2254 6.6402 24.2254 10.1441V18.1319ZM21.3831 12.4963H18.7123C17.3892 12.4963 16.7276 13.1334 16.7276 14.334C16.7276 15.3631 17.3892 16.0002 18.7368 16.0002C20.4275 16.0002 21.3831 15.0201 21.3831 12.9374V12.4963Z" fill="#110C22"/>
<path d="M12.4963 3.38135H7.86533V18.1319H4.7535V3.38135H0.269529L0 0.490042H12.4963V3.38135Z" fill="#110C22"/>
</svg>
